# This file uses centimeters as units for non-parametric coordinates.

mtllib EnemyShip_BlackStealth.mtl
g default
v 2.901647 0.072927 2.534272
v 5.128967 0.283364 5.477219
v 2.901647 0.739389 2.534272
v 5.128967 0.500000 5.477219
v 2.901647 0.333231 -1.464500
v 5.128967 0.500000 -6.307292
v 2.901647 -0.333231 -1.464500
v 5.128967 0.151217 -6.307292
v 4.522372 0.500000 -6.307292
v 4.522372 0.151217 -6.307292
v 4.522372 0.283364 5.477219
v 4.522372 0.500000 5.477219
v 1.943754 0.264446 -0.489264
v 1.943754 -0.153135 -0.489264
v 4.522372 -0.500000 -2.737688
v 5.128967 -0.500000 -2.737688
v 5.128967 0.500000 -1.074520
v 4.522372 0.500000 -1.074520
v 2.886677 0.692826 1.105222
v 2.886677 0.194840 1.105222
v 4.522372 -0.500000 4.223751
v 5.128967 -0.500000 4.223751
v 5.128967 0.500000 4.223751
v 4.522372 0.500000 4.223751
v 0.730045 0.608069 1.680712
v 0.015398 0.625956 6.307292
v 0.015398 1.037463 6.307292
v 0.730045 0.915551 1.680712
v 0.015398 0.219799 -4.504088
v 0.135332 0.193374 -0.489264
v 0.135332 0.451210 -0.489264
v 0.015398 0.631306 -4.504088
v 0.736590 0.264446 -0.489264
v 0.736590 -0.153135 -0.489264
v 0.975008 -0.333231 -4.504088
v 0.975008 0.333231 -4.504088
v 1.470884 0.692826 1.680712
v 1.006873 0.739389 6.307292
v 1.006873 0.072927 6.307292
v 1.470884 0.194840 1.680712
v 3.732519 0.768633 -1.977469
v 3.732519 -0.068819 -1.977469
v 3.732519 -0.068819 -0.812914
v 3.732519 -0.068819 3.939855
v 3.732519 -0.068819 4.989574
v 3.732519 0.768633 4.989574
v 3.732519 0.768633 3.939855
v 3.732519 0.768633 -0.812914
v 7.000000 0.983514 1.789953
v 4.522372 0.983514 1.789953
v 3.732519 1.252147 1.585944
v 2.901647 0.333231 0.192680
v 2.901647 -0.333231 0.192680
v 3.732519 -0.068819 1.585944
v 4.522372 -0.131893 1.789953
v 7.000000 -0.131893 1.789953
v 7.000000 0.983514 -0.578234
v 4.522372 0.983514 -0.578234
v 3.732519 1.252147 -0.397298
v 2.901647 0.333231 -0.206966
v 2.901647 -0.333231 -0.206966
v 3.732519 -0.068819 -0.397298
v 4.522372 -0.131893 -0.578234
v 7.000000 -0.131893 -0.578234
v 0.000000 0.620139 1.633941
v 0.000000 0.626211 6.300603
v 0.000000 1.037209 6.300603
v 0.000000 0.903480 1.633941
v 0.000000 0.220053 -4.497400
v 0.000000 0.195611 -0.473611
v 0.000000 0.448972 -0.473611
v 0.000000 0.631051 -4.497400
v -2.901647 0.072927 2.534272
v -5.128967 0.283364 5.477219
v -2.901647 0.739389 2.534272
v -5.128967 0.500000 5.477219
v -2.901647 0.333231 -1.464500
v -5.128967 0.500000 -6.307292
v -2.901647 -0.333231 -1.464500
v -5.128967 0.151217 -6.307292
v -4.522372 0.500000 -6.307292
v -4.522372 0.151217 -6.307292
v -4.522372 0.283364 5.477219
v -4.522372 0.500000 5.477219
v -1.943754 0.264446 -0.489264
v -1.943754 -0.153135 -0.489264
v -4.522372 -0.500000 -2.737688
v -5.128967 -0.500000 -2.737688
v -5.128967 0.500000 -1.074520
v -4.522372 0.500000 -1.074520
v -2.886677 0.692826 1.105222
v -2.886677 0.194840 1.105222
v -4.522372 -0.500000 4.223751
v -5.128967 -0.500000 4.223751
v -5.128967 0.500000 4.223751
v -4.522372 0.500000 4.223751
v -0.730045 0.608069 1.680712
v -0.015398 0.625956 6.307292
v -0.015398 1.037463 6.307292
v -0.730045 0.915551 1.680712
v -0.015398 0.219799 -4.504088
v -0.135332 0.193374 -0.489264
v -0.135332 0.451210 -0.489264
v -0.015398 0.631306 -4.504088
v -0.736590 0.264446 -0.489264
v -0.736590 -0.153135 -0.489264
v -0.975008 -0.333231 -4.504088
v -0.975008 0.333231 -4.504088
v -1.470884 0.692826 1.680712
v -1.006873 0.739389 6.307292
v -1.006873 0.072927 6.307292
v -1.470884 0.194840 1.680712
v -3.732520 0.768633 -1.977469
v -3.732520 -0.068819 -1.977469
v -3.732520 -0.068819 -0.812914
v -3.732520 -0.068819 3.939855
v -3.732520 -0.068819 4.989574
v -3.732520 0.768633 4.989574
v -3.732520 0.768633 3.939855
v -3.732520 0.768633 -0.812914
v -7.000000 0.983514 1.789953
v -4.522372 0.983514 1.789953
v -3.732520 1.252147 1.585944
v -2.901647 0.333231 0.192680
v -2.901647 -0.333231 0.192680
v -3.732520 -0.068819 1.585944
v -4.522372 -0.131893 1.789953
v -7.000000 -0.131893 1.789953
v -7.000000 0.983514 -0.578234
v -4.522372 0.983514 -0.578234
v -3.732520 1.252147 -0.397298
v -2.901647 0.333231 -0.206966
v -2.901647 -0.333231 -0.206966
v -3.732520 -0.068819 -0.397298
v -4.522372 -0.131893 -0.578234
v -7.000000 -0.131893 -0.578234
vt 0.583932 0.844471
vt 0.577965 0.741115
vt 0.613218 0.741115
vt 0.611987 0.844471
vt 0.592790 0.720587
vt 0.601910 0.720587
vt 0.601039 0.897199
vt 0.581470 0.865885
vt 0.606451 0.865885
vt 0.606451 0.897199
vt 0.590666 0.805084
vt 0.618530 0.805084
vt 0.590666 0.745923
vt 0.618530 0.745923
vt 0.581470 0.691976
vt 0.606451 0.733525
vt 0.597738 0.602801
vt 0.606451 0.602801
vt 0.152979 0.816451
vt 0.175208 0.778038
vt 0.196171 0.778038
vt 0.181034 0.816451
vt 0.199362 0.658714
vt 0.219716 0.757802
vt 0.152979 0.833274
vt 0.181034 0.833274
vt 0.219716 0.841286
vt 0.653190 0.720587
vt 0.681245 0.720587
vt 0.681245 0.879413
vt 0.653190 0.879413
vt 0.520052 0.691149
vt 0.512550 0.812070
vt 0.502809 0.812070
vt 0.496664 0.691149
vt 0.496664 0.658626
vt 0.484622 0.712380
vt 0.542721 0.720587
vt 0.570775 0.720587
vt 0.572006 0.823943
vt 0.536754 0.823943
vt 0.560698 0.844471
vt 0.551579 0.844471
vt 0.630550 0.635444
vt 0.636600 0.635444
vt 0.636600 0.670450
vt 0.608672 0.670450
vt 0.650103 0.738420
vt 0.618953 0.738420
vt 0.650103 0.804558
vt 0.618953 0.804558
vt 0.636600 0.818418
vt 0.608672 0.864866
vt 0.636600 0.964556
vt 0.626859 0.964556
vt 0.080284 0.683549
vt 0.108339 0.683549
vt 0.123476 0.721962
vt 0.102513 0.721962
vt 0.080284 0.666726
vt 0.108339 0.666726
vt 0.147021 0.742198
vt 0.126667 0.841286
vt 0.147021 0.658714
vt 0.619177 0.879413
vt 0.619177 0.720587
vt 0.647231 0.720587
vt 0.647231 0.879413
vt 0.480669 0.779547
vt 0.457281 0.779547
vt 0.463426 0.658626
vt 0.473167 0.658626
vt 0.468509 0.793873
vt 0.449897 0.793873
vt 0.339984 0.160817
vt 0.374960 0.057461
vt 0.374960 0.101649
vt 0.339354 0.220973
vt 0.408208 0.036934
vt 0.408208 0.089699
vt 0.279756 0.196748
vt 0.260223 0.001992
vt 0.433743 0.036934
vt 0.433743 0.089699
vt 0.374960 0.200737
vt 0.408208 0.192150
vt 0.248570 0.196748
vt 0.218487 0.001992
vt 0.433743 0.192150
vt 0.374960 0.284222
vt 0.408208 0.291839
vt 0.217839 0.198717
vt 0.217839 0.002274
vt 0.433743 0.291839
vt 0.374960 0.301718
vt 0.408208 0.312730
vt 0.217191 0.001992
vt 0.187108 0.196748
vt 0.433743 0.312730
vt 0.339984 0.276210
vt 0.299661 0.288093
vt 0.374960 0.350740
vt 0.408208 0.533004
vt 0.175454 0.001992
vt 0.155922 0.196748
vt 0.433743 0.533004
vt 0.339984 0.329146
vt 0.095694 0.160817
vt 0.096324 0.220973
vt 0.258882 0.457098
vt 0.248846 0.288093
vt 0.060718 0.101649
vt 0.060718 0.057461
vt 0.218487 0.457098
vt 0.223536 0.288093
vt 0.027469 0.089699
vt 0.027469 0.036934
vt 0.217839 0.456816
vt 0.217839 0.287435
vt 0.060718 0.200737
vt 0.027469 0.192150
vt 0.001935 0.089699
vt 0.001935 0.036934
vt 0.212142 0.288093
vt 0.217191 0.457098
vt 0.060718 0.284222
vt 0.027469 0.291839
vt 0.001935 0.192150
vt 0.186832 0.288093
vt 0.176796 0.457098
vt 0.060718 0.301718
vt 0.027469 0.312730
vt 0.001935 0.291839
vt 0.136016 0.288093
vt 0.095694 0.329146
vt 0.060718 0.350740
vt 0.027469 0.533004
vt 0.001935 0.312730
vt 0.095694 0.276210
vt 0.001935 0.533004
vt 0.871515 0.346524
vt 0.907121 0.465848
vt 0.907121 0.510036
vt 0.872145 0.406680
vt 0.872145 0.308111
vt 0.907121 0.366760
vt 0.940369 0.477799
vt 0.940369 0.530564
vt 0.792384 0.565506
vt 0.811917 0.370750
vt 0.872145 0.291288
vt 0.907121 0.283276
vt 0.940369 0.375348
vt 0.965904 0.477799
vt 0.965904 0.530564
vt 0.750648 0.565506
vt 0.780731 0.370750
vt 0.831822 0.279404
vt 0.907121 0.265780
vt 0.940369 0.275659
vt 0.965904 0.375348
vt 0.750000 0.565224
vt 0.750000 0.368781
vt 0.872145 0.238352
vt 0.907121 0.216758
vt 0.940369 0.184757
vt 0.965904 0.275659
vt 0.719269 0.370750
vt 0.749352 0.565506
vt 0.781007 0.279404
vt 0.791043 0.110400
vt 0.965904 0.184757
vt 0.688083 0.370750
vt 0.707616 0.565506
vt 0.755697 0.279404
vt 0.750648 0.110400
vt 0.940369 0.034494
vt 0.965904 0.034494
vt 0.628485 0.346524
vt 0.627855 0.406680
vt 0.750000 0.280063
vt 0.750000 0.110682
vt 0.592879 0.510036
vt 0.592879 0.465848
vt 0.749352 0.110400
vt 0.744303 0.279404
vt 0.559631 0.530564
vt 0.559631 0.477799
vt 0.627855 0.308111
vt 0.592879 0.366760
vt 0.708957 0.110400
vt 0.718993 0.279404
vt 0.534096 0.530564
vt 0.534096 0.477799
vt 0.559631 0.375348
vt 0.627855 0.291288
vt 0.592879 0.283276
vt 0.627855 0.238352
vt 0.668178 0.279404
vt 0.534096 0.375348
vt 0.559631 0.275659
vt 0.592879 0.265780
vt 0.592879 0.216758
vt 0.534096 0.275659
vt 0.559631 0.184757
vt 0.559631 0.034494
vt 0.534096 0.184757
vt 0.534096 0.034494
vt 0.469552 0.746122
vt 0.469552 0.720587
vt 0.484234 0.720587
vt 0.484234 0.746122
vt 0.463593 0.746122
vt 0.454474 0.746122
vt 0.454474 0.720587
vt 0.463593 0.720587
vt 0.530225 0.658626
vt 0.544133 0.658626
vt 0.544133 0.698165
vt 0.530225 0.698165
vt 0.532592 0.718855
vt 0.524005 0.718855
vt 0.532255 0.739244
vt 0.524342 0.739244
vt 0.524005 0.759632
vt 0.532592 0.759632
vt 0.530225 0.780322
vt 0.544133 0.780322
vt 0.530225 0.819861
vt 0.544133 0.819861
vt 0.553116 0.685377
vt 0.564778 0.685377
vt 0.564778 0.719091
vt 0.553116 0.719091
vt 0.548086 0.658626
vt 0.566699 0.658626
vt 0.569994 0.735882
vt 0.562793 0.735882
vt 0.569931 0.739662
vt 0.562855 0.739662
vt 0.562793 0.743441
vt 0.569994 0.743441
vt 0.553116 0.760233
vt 0.564778 0.760233
vt 0.553116 0.793946
vt 0.564778 0.793946
vt 0.566699 0.820697
vt 0.548086 0.820697
vt 0.586107 0.735636
vt 0.604719 0.735636
vt 0.589275 0.762436
vt 0.577782 0.762436
vt 0.586107 0.681830
vt 0.604719 0.681830
vt 0.589267 0.762866
vt 0.577789 0.762866
vt 0.573947 0.658626
vt 0.597335 0.658626
vt 0.577782 0.763296
vt 0.589275 0.763296
vt 0.586107 0.790095
vt 0.604719 0.790095
vt 0.586107 0.843902
vt 0.604719 0.843902
vt 0.490193 0.720587
vt 0.518248 0.720587
vt 0.530795 0.762323
vt 0.513473 0.762323
vt 0.530784 0.762972
vt 0.513483 0.762972
vt 0.513473 0.763620
vt 0.530795 0.763620
vt 0.490193 0.805356
vt 0.518248 0.805356
vt 0.433833 0.720587
vt 0.448515 0.720587
vt 0.448515 0.746122
vt 0.433833 0.746122
vt 0.427875 0.720587
vt 0.427875 0.746122
vt 0.418755 0.746122
vt 0.418755 0.720587
vt 0.108339 0.683549
vt 0.108339 0.666726
vt 0.123476 0.721962
vn -0.947234 0.000000 0.320543
vn -0.906297 0.000000 0.422643
vn -0.904807 0.000000 0.425823
vn -0.947234 0.000000 0.320543
vn -0.018724 0.999674 -0.017365
vn 0.277749 0.960650 -0.002675
vn 0.126501 0.988302 0.085181
vn -0.271314 0.962485 0.003258
vn -0.525333 0.000000 -0.850897
vn -0.949592 0.000000 -0.313490
vn -0.927526 0.000000 -0.373758
vn -0.525333 0.000000 -0.850897
vn -0.184950 -0.982251 0.031237
vn -0.207439 -0.978233 0.005487
vn -0.186158 -0.945778 0.266176
vn -0.064135 -0.996915 -0.045250
vn 1.000000 0.000000 0.000000
vn 0.843360 0.000000 0.537350
vn 0.855368 0.000000 0.518021
vn 1.000000 0.000000 0.000000
vn -0.967414 0.000000 -0.253199
vn 0.000000 0.000000 -1.000000
vn 0.000000 0.000000 -1.000000
vn -0.967286 0.000000 -0.253687
vn -0.079235 -0.888938 0.451123
vn -0.089080 -0.995900 0.015761
vn 0.000000 -0.998547 -0.053884
vn 0.000000 -0.848015 0.529973
vn -0.437857 0.000000 0.899045
vn -0.441005 0.000000 0.897505
vn 0.000000 0.000000 1.000000
vn 0.000000 0.000000 1.000000
vn 0.107635 0.983640 0.144456
vn 0.148792 0.988868 0.000000
vn 0.000000 1.000000 0.000000
vn 0.000000 0.985242 0.171165
vn 0.009103 -0.996098 0.087786
vn -0.459387 -0.885315 -0.071974
vn -0.068638 -0.996166 0.054248
vn -0.038614 -0.997717 0.055398
vn 0.000000 -0.998132 0.061094
vn -0.233937 -0.971959 -0.023856
vn -0.072330 -0.982020 -0.174368
vn 0.000000 -0.983763 -0.179472
vn 0.615443 0.487148 -0.619610
vn 0.975017 0.137292 -0.174623
vn 1.000000 0.000000 0.000000
vn 1.000000 0.000000 0.000000
vn 0.029905 0.999553 0.000000
vn 0.140875 0.980279 -0.138593
vn 0.000000 0.959939 -0.280209
vn 0.000000 1.000000 0.000000
vn -0.058091 0.998259 0.010199
vn -0.036997 0.986767 -0.157868
vn 0.224381 0.974265 -0.021468
vn -0.125525 0.991791 -0.024358
vn -0.999956 0.000000 -0.009360
vn -0.999865 0.000000 -0.016403
vn -0.999865 0.000000 -0.016403
vn -0.999932 0.000000 -0.011678
vn 0.133136 -0.990276 0.040356
vn -0.223113 -0.974054 0.037930
vn -0.056554 -0.996862 -0.055386
vn 0.000000 -0.999150 -0.041213
vn 0.930548 0.000000 0.366171
vn 0.941088 0.000000 0.338163
vn 0.083417 0.992499 0.089375
vn 0.000000 0.998527 0.054266
vn -0.126756 0.989941 0.062842
vn -0.709889 0.704291 0.005656
vn -0.415081 -0.907255 -0.067793
vn -0.245993 -0.967567 -0.057452
vn 0.893643 0.000000 0.448779
vn 0.893643 0.000000 0.448779
vn 0.798381 0.000000 0.602153
vn 0.840025 0.000000 0.542548
vn 0.102418 0.994738 -0.002618
vn 0.230239 0.973055 0.012386
vn -0.376560 0.000000 -0.926392
vn -0.376560 0.000000 -0.926392
vn -0.301361 0.000000 -0.953510
vn -0.261252 0.000000 -0.965271
vn -0.262328 -0.964257 0.037321
vn -0.349395 -0.936571 0.027522
vn 0.000000 0.000000 1.000000
vn 0.000000 0.000000 1.000000
vn 0.000000 0.000000 1.000000
vn 0.000000 0.000000 1.000000
vn 0.178899 0.983411 0.029957
vn 0.114111 0.993084 0.027606
vn 0.844622 0.000000 -0.535363
vn 0.844622 0.000000 -0.535363
vn 0.779274 0.000000 -0.626683
vn 0.729312 0.000000 -0.684181
vn 0.019955 0.000000 0.999801
vn 0.012985 0.000000 0.999916
vn -0.465075 -0.885234 0.008066
vn -0.473348 -0.880836 0.008342
vn -0.003916 0.000000 -0.999992
vn -0.006419 0.000000 -0.999979
vn 0.276707 0.960323 0.034815
vn 0.270900 0.961969 0.035064
vn 0.210168 0.977642 0.006693
vn 0.205615 0.978615 0.005964
vn -0.006173 0.000000 0.999981
vn -0.003817 0.000000 0.999993
vn -0.373821 -0.925918 -0.054162
vn -0.378421 -0.924005 -0.054880
vn 0.022466 0.000000 -0.999748
vn 0.029949 0.000000 -0.999551
vn 0.000000 -0.999999 0.001300
vn 0.000000 -0.999999 0.001300
vn -0.398437 0.000000 0.917196
vn -0.398437 0.000000 0.917196
vn 0.000000 0.999591 -0.028610
vn 0.000000 0.999591 -0.028610
vn 0.000000 0.000000 -1.000000
vn 0.000000 0.000000 -1.000000
vn 0.000000 -0.999982 -0.006068
vn 0.000000 -0.999982 -0.006068
vn 0.000000 0.000000 1.000000
vn 0.000000 0.000000 1.000000
vn -0.000000 0.998980 0.045155
vn -0.000000 0.998980 0.045155
vn -0.398416 0.000000 -0.917205
vn -0.398416 0.000000 -0.917205
vn 0.060486 0.988194 -0.140764
vn 0.000000 0.999612 -0.027861
vn -0.149833 0.985084 -0.084617
vn -0.653741 0.756625 -0.011874
vn -0.657841 0.000000 0.753157
vn -0.639213 0.000000 0.769030
vn 0.199021 -0.968492 -0.149715
vn 0.011795 -0.999642 -0.023998
vn -0.021964 -0.997839 0.061926
vn 0.000000 -0.999179 0.040518
vn 0.811239 0.361392 -0.459659
vn 0.856614 0.318896 -0.405609
vn -0.282687 0.000000 0.959212
vn -0.282687 0.000000 0.959212
vn 0.947234 0.000000 0.320543
vn 0.947234 0.000000 0.320543
vn 0.904807 0.000000 0.425823
vn 0.906297 0.000000 0.422643
vn 0.018724 0.999674 -0.017365
vn 0.271315 0.962485 0.003258
vn -0.126501 0.988302 0.085181
vn -0.277749 0.960650 -0.002675
vn 0.525332 0.000000 -0.850897
vn 0.525332 0.000000 -0.850897
vn 0.927526 0.000000 -0.373758
vn 0.949592 0.000000 -0.313490
vn 0.184950 -0.982251 0.031237
vn 0.064135 -0.996915 -0.045250
vn 0.186158 -0.945778 0.266176
vn 0.207439 -0.978233 0.005487
vn -1.000000 0.000000 0.000000
vn -1.000000 0.000000 0.000000
vn -0.855368 0.000000 0.518021
vn -0.843360 0.000000 0.537350
vn 0.967414 0.000000 -0.253199
vn 0.967286 0.000000 -0.253687
vn 0.000000 0.000000 -1.000000
vn 0.000000 0.000000 -1.000000
vn 0.079235 -0.888938 0.451123
vn 0.000000 -0.848015 0.529973
vn 0.000000 -0.998547 -0.053884
vn 0.089080 -0.995900 0.015761
vn 0.437858 0.000000 0.899044
vn 0.000000 0.000000 1.000000
vn 0.000000 0.000000 1.000000
vn 0.441005 0.000000 0.897505
vn -0.107635 0.983640 0.144456
vn 0.000000 0.985243 0.171165
vn 0.000000 1.000000 0.000000
vn -0.148792 0.988869 0.000000
vn -0.009103 -0.996098 0.087786
vn 0.038614 -0.997717 0.055398
vn 0.068638 -0.996166 0.054248
vn 0.459388 -0.885315 -0.071974
vn 0.000000 -0.998132 0.061094
vn 0.000000 -0.983763 -0.179472
vn 0.072330 -0.982020 -0.174368
vn 0.233937 -0.971959 -0.023856
vn -0.615442 0.487149 -0.619610
vn -1.000000 0.000001 0.000000
vn -1.000000 0.000001 0.000000
vn -0.975017 0.137292 -0.174623
vn -0.029905 0.999553 0.000000
vn 0.000000 1.000000 0.000000
vn 0.000000 0.959939 -0.280209
vn -0.140875 0.980279 -0.138593
vn 0.058091 0.998259 0.010199
vn 0.125525 0.991791 -0.024358
vn -0.224381 0.974265 -0.021468
vn 0.036997 0.986767 -0.157868
vn 0.999956 0.000000 -0.009359
vn 0.999932 0.000000 -0.011678
vn 0.999865 0.000000 -0.016402
vn 0.999866 0.000000 -0.016402
vn -0.133136 -0.990276 0.040356
vn 0.223113 -0.974054 0.037930
vn 0.000000 -0.999150 -0.041213
vn 0.056554 -0.996862 -0.055386
vn -0.941088 0.000000 0.338163
vn -0.930548 0.000000 0.366171
vn -0.083417 0.992499 0.089375
vn 0.000000 0.998527 0.054266
vn 0.709889 0.704291 0.005656
vn 0.126756 0.989941 0.062842
vn 0.245993 -0.967567 -0.057452
vn 0.415081 -0.907255 -0.067793
vn -0.893643 0.000000 0.448779
vn -0.840025 0.000000 0.542547
vn -0.798381 0.000000 0.602153
vn -0.893643 0.000000 0.448779
vn -0.230239 0.973055 0.012386
vn -0.102418 0.994738 -0.002618
vn 0.376559 0.000000 -0.926392
vn 0.261251 0.000000 -0.965271
vn 0.301361 0.000000 -0.953510
vn 0.376559 0.000000 -0.926392
vn 0.349395 -0.936571 0.027522
vn 0.262328 -0.964257 0.037321
vn 0.000000 0.000000 1.000000
vn 0.000000 0.000000 1.000000
vn 0.000000 0.000000 1.000000
vn 0.000000 0.000000 1.000000
vn -0.114111 0.993084 0.027606
vn -0.178899 0.983411 0.029957
vn -0.844622 0.000000 -0.535363
vn -0.729312 0.000000 -0.684181
vn -0.779274 0.000000 -0.626683
vn -0.844622 0.000000 -0.535363
vn -0.012985 0.000000 0.999916
vn -0.019955 0.000000 0.999801
vn 0.473348 -0.880836 0.008342
vn 0.465075 -0.885235 0.008066
vn 0.006420 0.000000 -0.999979
vn 0.003916 0.000000 -0.999992
vn -0.270900 0.961969 0.035063
vn -0.276707 0.960323 0.034815
vn -0.205615 0.978615 0.005964
vn -0.210168 0.977642 0.006693
vn 0.003817 0.000000 0.999993
vn 0.006173 0.000000 0.999981
vn 0.378421 -0.924005 -0.054880
vn 0.373821 -0.925918 -0.054162
vn -0.029949 0.000000 -0.999551
vn -0.022466 0.000000 -0.999748
vn 0.398447 0.000000 0.917191
vn 0.398447 0.000000 0.917191
vn 0.398418 0.000000 -0.917204
vn 0.398418 0.000000 -0.917204
vn -0.060486 0.988194 -0.140764
vn 0.000000 0.999612 -0.027861
vn 0.149833 0.985084 -0.084616
vn 0.653740 0.756626 -0.011874
vn 0.657841 0.000000 0.753157
vn 0.639213 0.000000 0.769030
vn -0.199021 -0.968492 -0.149715
vn -0.011795 -0.999642 -0.023998
vn 0.021964 -0.997839 0.061926
vn 0.000000 -0.999179 0.040518
vn -0.856613 0.318897 -0.405609
vn -0.811239 0.361392 -0.459659
vn 0.282687 0.000000 0.959212
vn 0.282687 0.000000 0.959212
s 1
g pCube1
usemtl lambert2SG
f 1/1/1 45/2/2 46/3/3 3/4/4
s 2
f 3/75/5 46/76/6 47/77/7 19/78/8
s 3
f 5/253/9 41/257/10 42/258/11 7/254/12
s 4
f 20/141/13 44/142/14 45/143/15 1/144/16
s 5
f 2/7/17 22/8/18 23/9/19 4/10/20
s 3
f 9/209/21 6/210/22 8/211/23 10/212/24
s 4
f 11/148/25 21/147/26 22/154/27 2/155/28
s 1
f 12/213/29 11/214/30 2/215/31 4/216/32
s 2
f 24/80/33 12/79/34 4/83/35 23/84/36
s 4
f 7/164/37 42/165/38 43/159/39 14/158/40
f 16/172/41 15/166/42 10/177/43 8/178/44
s 5
f 17/16/45 16/15/46 8/17/47 6/18/48
s 2
f 9/103/49 18/96/50 17/99/51 6/106/52
f 13/101/53 48/95/54 41/102/55 5/107/56
s 11
f 53/19/57 20/20/58 19/21/59 52/22/60
s 4
f 53/145/61 54/146/62 44/142/14 20/141/13
f 22/154/27 21/147/26 55/153/63 56/161/64
s 5
f 23/9/19 22/8/18 56/11/65 49/12/66
s 2
f 50/86/67 24/80/33 23/84/36 49/89/68
f 19/21/8 47/23/7 51/24/69 52/22/70
s 4
f 20/141/13 1/144/16 39/149/71 40/150/72
s 12
f 1/28/73 3/29/74 38/30/75 39/31/76
s 2
f 3/75/5 19/78/8 37/81/77 38/82/78
s 13
f 19/217/79 20/218/80 40/219/81 37/220/82
s 4
f 7/164/37 14/158/40 34/170/83 35/171/84
s 14
f 14/231/85 13/232/86 33/233/87 34/234/88
s 2
f 13/101/53 5/107/56 36/110/89 33/111/90
s 15
f 5/253/91 7/254/92 35/250/93 36/249/94
s 14
f 34/234/88 33/233/87 31/237/95 30/238/96
s 4
f 35/171/84 34/170/83 30/175/97 29/176/98
s 15
f 36/249/94 35/250/93 29/251/99 32/252/100
s 2
f 33/111/90 36/110/89 32/114/101 31/115/102
f 38/82/78 37/81/77 28/87/103 27/88/104
s 12
f 39/265/76 38/266/75 27/267/105 26/268/106
s 4
f 40/150/72 39/149/71 26/156/107 25/157/108
s 13
f 37/220/82 40/219/81 25/221/109 28/222/110
s 4
f 25/157/108 26/156/107 66/162/111 65/163/112
s 12
f 26/268/106 27/267/105 67/269/113 66/270/114
s 2
f 27/88/104 28/87/103 68/92/115 67/93/116
s 13
f 28/222/110 25/221/109 65/223/117 68/224/118
s 4
f 29/176/98 30/175/97 70/181/119 69/182/120
s 14
f 30/238/96 31/237/95 71/239/121 70/240/122
s 2
f 31/115/102 32/114/101 72/118/123 71/119/124
s 15
f 32/252/100 29/251/99 69/255/125 72/256/126
s 3
f 41/32/10 9/33/21 10/34/24 42/35/11
s 4
f 43/36/39 42/35/38 10/34/43 15/37/42
f 44/142/14 54/146/62 55/153/63 21/147/26
f 45/143/15 44/142/14 21/147/26 11/148/25
s 1
f 46/3/3 45/2/2 11/5/30 12/6/29
s 2
f 47/77/7 46/76/6 12/79/34 24/80/33
f 51/85/69 47/77/7 24/80/33 50/86/67
f 41/102/55 48/95/54 18/96/50 9/103/49
f 58/91/127 50/86/67 49/89/68 57/94/128
f 59/90/129 51/85/69 50/86/67 58/91/127
f 52/22/70 51/24/69 59/27/129 60/26/130
s 11
f 61/25/131 53/19/57 52/22/60 60/26/132
s 4
f 61/151/133 62/152/134 54/146/62 53/145/61
f 55/153/63 54/146/62 62/152/134 63/160/135
f 56/161/64 55/153/63 63/160/135 64/167/136
s 5
f 49/12/66 56/11/65 64/13/137 57/14/138
s 2
f 18/96/50 58/91/127 57/94/128 17/99/51
f 48/95/54 59/90/129 58/91/127 18/96/50
f 60/100/130 59/90/129 48/95/54 13/101/53
s 11
f 14/231/139 61/235/131 60/236/132 13/232/140
s 4
f 14/158/40 43/159/39 62/152/134 61/151/133
f 63/160/135 62/152/134 43/159/39 15/166/42
f 64/167/136 63/160/135 15/166/42 16/172/41
s 5
f 57/14/138 64/13/137 16/15/46 17/16/45
s 16
f 73/38/141 75/39/142 118/40/143 117/41/144
s 2
f 75/108/145 91/109/146 119/112/147 118/113/148
s 18
f 77/73/149 79/74/150 114/70/151 113/69/152
s 4
f 92/179/153 73/180/154 117/183/155 116/184/156
s 20
f 74/44/157 76/45/158 95/46/159 94/47/160
s 18
f 81/275/161 82/276/162 80/277/163 78/278/164
s 4
f 83/187/165 74/193/166 94/194/167 93/188/168
s 16
f 84/279/169 76/280/170 74/281/171 83/282/172
s 2
f 96/116/173 95/122/174 76/123/175 84/117/176
s 4
f 79/198/177 86/199/178 115/202/179 114/203/180
f 88/207/181 80/208/182 82/206/183 87/205/184
s 20
f 89/52/185 78/54/186 80/55/187 88/53/188
s 2
f 81/137/189 78/140/190 89/138/191 90/132/192
f 85/134/193 77/135/194 113/136/195 120/131/196
s 27
f 125/56/197 124/57/198 91/285/199 92/59/200
s 4
f 125/189/201 92/179/153 116/184/156 126/190/202
f 94/194/167 128/200/203 127/195/204 93/188/168
s 20
f 95/46/159 121/48/205 128/49/206 94/47/160
s 2
f 122/121/207 121/128/208 95/122/174 96/116/173
f 91/58/146 124/283/209 123/62/210 119/63/147
s 4
f 92/179/153 112/173/211 111/174/212 73/180/154
s 28
f 73/65/213 111/66/214 110/67/215 75/68/216
s 2
f 75/108/145 110/104/217 109/105/218 91/109/146
s 13
f 91/229/219 109/227/220 112/228/221 92/230/222
s 4
f 79/198/177 107/191/223 106/192/224 86/199/178
s 14
f 86/245/225 106/243/226 105/244/227 85/246/228
s 2
f 85/134/193 105/129/229 108/130/230 77/135/194
s 31
f 77/263/231 108/261/232 107/262/233 79/264/234
s 14
f 106/243/226 102/241/235 103/242/236 105/244/227
s 4
f 107/191/223 101/185/237 102/186/238 106/192/224
s 31
f 108/261/232 104/259/239 101/260/240 107/262/233
s 2
f 105/129/229 103/124/241 104/125/242 108/130/230
f 110/104/217 99/97/243 100/98/244 109/105/218
s 28
f 111/273/214 98/271/245 99/272/246 110/274/215
s 4
f 112/173/211 97/168/247 98/169/248 111/174/212
s 13
f 109/227/220 100/225/249 97/226/250 112/228/221
s 4
f 97/168/247 65/163/112 66/162/111 98/169/248
s 28
f 98/271/245 66/270/251 67/269/252 99/272/246
s 2
f 99/97/243 67/93/116 68/92/115 100/98/244
s 13
f 100/225/249 68/224/118 65/223/117 97/226/250
s 4
f 101/185/237 69/182/120 70/181/119 102/186/238
s 14
f 102/241/235 70/240/122 71/239/121 103/242/236
s 2
f 103/124/241 71/119/124 72/118/123 104/125/242
s 31
f 104/259/239 72/256/253 69/255/254 101/260/240
s 18
f 113/69/152 114/70/151 82/71/162 81/72/161
s 4
f 115/202/179 87/205/184 82/206/183 114/203/180
f 116/184/156 93/188/168 127/195/204 126/190/202
f 117/183/155 83/187/165 93/188/168 116/184/156
s 16
f 118/40/143 84/42/169 83/43/172 117/41/144
s 2
f 119/112/147 96/116/173 84/117/176 118/113/148
f 123/120/210 122/121/207 96/116/173 119/112/147
f 113/136/195 81/137/189 90/132/192 120/131/196
f 130/127/255 129/133/256 121/128/208 122/121/207
f 131/126/257 130/127/255 122/121/207 123/120/210
f 124/283/209 132/284/258 131/64/257 123/62/210
s 27
f 133/60/259 132/61/260 124/57/198 125/56/197
s 4
f 133/196/261 125/189/201 126/190/202 134/197/262
f 127/195/204 135/201/263 134/197/262 126/190/202
f 128/200/203 136/204/264 135/201/263 127/195/204
s 20
f 121/48/205 129/50/265 136/51/266 128/49/206
s 2
f 90/132/192 89/138/191 129/133/256 130/127/255
f 120/131/196 90/132/192 130/127/255 131/126/257
f 132/139/258 85/134/193 120/131/196 131/126/257
s 27
f 86/245/267 85/246/268 132/247/260 133/248/259
s 4
f 86/199/178 133/196/261 134/197/262 115/202/179
f 135/201/263 87/205/184 115/202/179 134/197/262
f 136/204/264 88/207/181 87/205/184 135/201/263
s 20
f 129/50/265 89/52/185 88/53/188 136/51/266
